<mxfile host="app.diagrams.net" modified="2023-08-17T07:20:17.426Z" agent="Mozilla/5.0 (Windows NT 10.0; Win64; x64) AppleWebKit/537.36 (KHTML, like Gecko) Chrome/115.0.0.0 Safari/537.36 Edg/115.0.1901.203" etag="RnO-KpHFznP2WscEwpBD" version="21.6.8" type="github">
  <diagram name="第 1 页" id="ItpNZ1CtYqmK6wRkj99w">
    <mxGraphModel dx="2178" dy="650" grid="1" gridSize="10" guides="1" tooltips="1" connect="1" arrows="1" fold="1" page="1" pageScale="1" pageWidth="827" pageHeight="1169" math="0" shadow="0">
      <root>
        <mxCell id="0" />
        <mxCell id="1" parent="0" />
        <mxCell id="ELUu0NZ1eCraazxI-zSG-14" value="" style="rounded=0;whiteSpace=wrap;html=1;" parent="1" vertex="1">
          <mxGeometry x="-160" y="510" width="160" height="120" as="geometry" />
        </mxCell>
        <mxCell id="ELUu0NZ1eCraazxI-zSG-13" value="" style="rounded=0;whiteSpace=wrap;html=1;" parent="1" vertex="1">
          <mxGeometry x="-150" y="150" width="1010" height="330" as="geometry" />
        </mxCell>
        <mxCell id="ELUu0NZ1eCraazxI-zSG-8" style="edgeStyle=orthogonalEdgeStyle;rounded=0;orthogonalLoop=1;jettySize=auto;html=1;exitX=0;exitY=0.5;exitDx=0;exitDy=0;" parent="1" source="ELUu0NZ1eCraazxI-zSG-2" target="ELUu0NZ1eCraazxI-zSG-4" edge="1">
          <mxGeometry relative="1" as="geometry" />
        </mxCell>
        <mxCell id="ELUu0NZ1eCraazxI-zSG-9" style="edgeStyle=orthogonalEdgeStyle;rounded=0;orthogonalLoop=1;jettySize=auto;html=1;exitX=1;exitY=0.5;exitDx=0;exitDy=0;entryX=0;entryY=0.5;entryDx=0;entryDy=0;" parent="1" source="ELUu0NZ1eCraazxI-zSG-2" target="ELUu0NZ1eCraazxI-zSG-5" edge="1">
          <mxGeometry relative="1" as="geometry" />
        </mxCell>
        <mxCell id="ELUu0NZ1eCraazxI-zSG-2" value="&lt;p class=&quot;MsoNormal&quot;&gt;&lt;font face=&quot;Consolas&quot;&gt;sys_user_role&lt;/font&gt;&lt;/p&gt;" style="rounded=1;whiteSpace=wrap;html=1;" parent="1" vertex="1">
          <mxGeometry x="70" y="180" width="120" height="60" as="geometry" />
        </mxCell>
        <mxCell id="ELUu0NZ1eCraazxI-zSG-4" value="&lt;p class=&quot;MsoNormal&quot;&gt;&lt;font face=&quot;Consolas&quot;&gt;sys_user&lt;/font&gt;&lt;/p&gt;" style="rounded=1;whiteSpace=wrap;html=1;" parent="1" vertex="1">
          <mxGeometry x="-130" y="180" width="120" height="60" as="geometry" />
        </mxCell>
        <mxCell id="ELUu0NZ1eCraazxI-zSG-5" value="&lt;p class=&quot;MsoNormal&quot;&gt;&lt;font face=&quot;Consolas&quot;&gt;sys_role&lt;/font&gt;&lt;/p&gt;" style="rounded=1;whiteSpace=wrap;html=1;" parent="1" vertex="1">
          <mxGeometry x="270" y="180" width="120" height="60" as="geometry" />
        </mxCell>
        <mxCell id="ELUu0NZ1eCraazxI-zSG-10" style="edgeStyle=orthogonalEdgeStyle;rounded=0;orthogonalLoop=1;jettySize=auto;html=1;exitX=0;exitY=0.5;exitDx=0;exitDy=0;" parent="1" source="ELUu0NZ1eCraazxI-zSG-6" target="ELUu0NZ1eCraazxI-zSG-5" edge="1">
          <mxGeometry relative="1" as="geometry" />
        </mxCell>
        <mxCell id="ELUu0NZ1eCraazxI-zSG-11" style="edgeStyle=orthogonalEdgeStyle;rounded=0;orthogonalLoop=1;jettySize=auto;html=1;exitX=1;exitY=0.5;exitDx=0;exitDy=0;entryX=0;entryY=0.5;entryDx=0;entryDy=0;" parent="1" source="ELUu0NZ1eCraazxI-zSG-6" target="ELUu0NZ1eCraazxI-zSG-7" edge="1">
          <mxGeometry relative="1" as="geometry" />
        </mxCell>
        <mxCell id="ELUu0NZ1eCraazxI-zSG-6" value="&lt;p class=&quot;MsoNormal&quot;&gt;&lt;font face=&quot;Consolas&quot;&gt;sys_role_privilege&lt;/font&gt;&lt;/p&gt;" style="rounded=1;whiteSpace=wrap;html=1;" parent="1" vertex="1">
          <mxGeometry x="480" y="180" width="120" height="60" as="geometry" />
        </mxCell>
        <mxCell id="YBQKNZOj_kC1JlnKUkuF-5" style="edgeStyle=orthogonalEdgeStyle;rounded=0;orthogonalLoop=1;jettySize=auto;html=1;exitX=0.5;exitY=1;exitDx=0;exitDy=0;entryX=0.5;entryY=0;entryDx=0;entryDy=0;" edge="1" parent="1" source="ELUu0NZ1eCraazxI-zSG-7" target="YBQKNZOj_kC1JlnKUkuF-4">
          <mxGeometry relative="1" as="geometry" />
        </mxCell>
        <mxCell id="ELUu0NZ1eCraazxI-zSG-7" value="&lt;p class=&quot;MsoNormal&quot;&gt;&lt;font face=&quot;Consolas&quot;&gt;sys_privilege&lt;/font&gt;&lt;/p&gt;" style="rounded=1;whiteSpace=wrap;html=1;" parent="1" vertex="1">
          <mxGeometry x="707" y="180" width="120" height="60" as="geometry" />
        </mxCell>
        <mxCell id="ELUu0NZ1eCraazxI-zSG-12" value="&lt;p class=&quot;MsoNormal&quot;&gt;&lt;font face=&quot;Consolas&quot;&gt;user&lt;/font&gt;&lt;/p&gt;" style="rounded=1;whiteSpace=wrap;html=1;" parent="1" vertex="1">
          <mxGeometry x="-140" y="560" width="120" height="60" as="geometry" />
        </mxCell>
        <mxCell id="ELUu0NZ1eCraazxI-zSG-15" value="后台管理用户" style="text;html=1;strokeColor=none;fillColor=none;align=center;verticalAlign=middle;whiteSpace=wrap;rounded=0;" parent="1" vertex="1">
          <mxGeometry x="-120" y="150" width="80" height="30" as="geometry" />
        </mxCell>
        <mxCell id="ELUu0NZ1eCraazxI-zSG-17" value="普通用户" style="text;html=1;strokeColor=none;fillColor=none;align=center;verticalAlign=middle;whiteSpace=wrap;rounded=0;" parent="1" vertex="1">
          <mxGeometry x="-190" y="520" width="140" height="30" as="geometry" />
        </mxCell>
        <mxCell id="Q2JdHZafnlj6pfrA_PvK-4" style="edgeStyle=orthogonalEdgeStyle;rounded=0;orthogonalLoop=1;jettySize=auto;html=1;exitX=0.5;exitY=0;exitDx=0;exitDy=0;" parent="1" source="Q2JdHZafnlj6pfrA_PvK-1" target="ELUu0NZ1eCraazxI-zSG-5" edge="1">
          <mxGeometry relative="1" as="geometry" />
        </mxCell>
        <mxCell id="Q2JdHZafnlj6pfrA_PvK-5" style="edgeStyle=orthogonalEdgeStyle;rounded=0;orthogonalLoop=1;jettySize=auto;html=1;exitX=0.5;exitY=1;exitDx=0;exitDy=0;" parent="1" source="Q2JdHZafnlj6pfrA_PvK-1" target="Q2JdHZafnlj6pfrA_PvK-2" edge="1">
          <mxGeometry relative="1" as="geometry" />
        </mxCell>
        <mxCell id="Q2JdHZafnlj6pfrA_PvK-1" value="&lt;p class=&quot;MsoNormal&quot;&gt;&lt;font face=&quot;Consolas&quot;&gt;sys_role_menu&lt;/font&gt;&lt;br&gt;&lt;/p&gt;" style="rounded=1;whiteSpace=wrap;html=1;" parent="1" vertex="1">
          <mxGeometry x="270" y="285" width="120" height="60" as="geometry" />
        </mxCell>
        <mxCell id="Q2JdHZafnlj6pfrA_PvK-2" value="&lt;p class=&quot;MsoNormal&quot;&gt;&lt;font face=&quot;Consolas&quot;&gt;sys_menu&lt;/font&gt;&lt;br&gt;&lt;/p&gt;" style="rounded=1;whiteSpace=wrap;html=1;" parent="1" vertex="1">
          <mxGeometry x="270" y="390" width="120" height="60" as="geometry" />
        </mxCell>
        <mxCell id="YBQKNZOj_kC1JlnKUkuF-7" style="edgeStyle=orthogonalEdgeStyle;rounded=0;orthogonalLoop=1;jettySize=auto;html=1;exitX=0.5;exitY=1;exitDx=0;exitDy=0;entryX=1;entryY=0.5;entryDx=0;entryDy=0;" edge="1" parent="1" source="YBQKNZOj_kC1JlnKUkuF-4" target="Q2JdHZafnlj6pfrA_PvK-2">
          <mxGeometry relative="1" as="geometry" />
        </mxCell>
        <mxCell id="YBQKNZOj_kC1JlnKUkuF-4" value="menu_id" style="rounded=1;whiteSpace=wrap;html=1;" vertex="1" parent="1">
          <mxGeometry x="707" y="295" width="120" height="40" as="geometry" />
        </mxCell>
        <mxCell id="YBQKNZOj_kC1JlnKUkuF-6" value="存有外键" style="text;html=1;strokeColor=none;fillColor=none;align=center;verticalAlign=middle;whiteSpace=wrap;rounded=0;" vertex="1" parent="1">
          <mxGeometry x="767" y="255" width="60" height="30" as="geometry" />
        </mxCell>
      </root>
    </mxGraphModel>
  </diagram>
</mxfile>
